<svg width="48" height="49" viewBox="0 0 48 49" fill="none" xmlns="http://www.w3.org/2000/svg">
<path d="M16.7606 18.2065C18.1525 21.1057 20.0501 23.823 22.4533 26.2261C24.8564 28.6293 27.5737 30.5269 30.473 31.9189C30.7223 32.0386 30.847 32.0985 31.0048 32.1445C31.5655 32.3079 32.254 32.1905 32.7289 31.8505C32.8625 31.7548 32.9768 31.6405 33.2055 31.4119C33.9047 30.7127 34.2543 30.363 34.6058 30.1345C35.9316 29.2725 37.6408 29.2725 38.9666 30.1345C39.3181 30.363 39.6677 30.7127 40.3669 31.4119L40.7567 31.8016C41.8196 32.8645 42.351 33.3959 42.6397 33.9667C43.2138 35.1018 43.2138 36.4423 42.6397 37.5775C42.351 38.1482 41.8196 38.6797 40.7567 39.7426L40.4414 40.0578C39.3822 41.1171 38.8525 41.6467 38.1325 42.0512C37.3335 42.5 36.0925 42.8228 35.176 42.82C34.3501 42.8176 33.7857 42.6574 32.6568 42.3369C26.59 40.615 20.8653 37.3661 16.0893 32.5901C11.3134 27.8141 8.06441 22.0894 6.34247 16.0226C6.02206 14.8937 5.86185 14.3293 5.85939 13.5034C5.85666 12.5869 6.17939 11.346 6.62823 10.547C7.03273 9.82689 7.56235 9.29727 8.62159 8.23802L8.93686 7.92275C9.99975 6.85987 10.5312 6.32843 11.102 6.03974C12.2371 5.4656 13.5776 5.4656 14.7127 6.03974C15.2835 6.32842 15.8149 6.85987 16.8778 7.92275L17.2676 8.31249C17.9668 9.0117 18.3164 9.36131 18.5449 9.71287C19.4069 11.0386 19.4069 12.7478 18.5449 14.0736C18.3164 14.4251 17.9668 14.7748 17.2676 15.474C17.0389 15.7026 16.9246 15.8169 16.8289 15.9505C16.4889 16.4254 16.3715 17.1139 16.535 17.6746C16.581 17.8324 16.6408 17.9571 16.7606 18.2065Z" stroke="#A97B50" stroke-width="3" stroke-linecap="round" stroke-linejoin="round"/>
</svg>
