<svg width="48" height="49" viewBox="0 0 48 49" fill="none" xmlns="http://www.w3.org/2000/svg">
<path d="M42.9999 36.5L29.7143 24.5M18.2857 24.5L5.00007 36.5M4 14.5L20.3298 25.9309C21.6522 26.8565 22.3134 27.3193 23.0325 27.4986C23.6678 27.657 24.3322 27.657 24.9675 27.4986C25.6866 27.3193 26.3478 26.8565 27.6702 25.9309L44 14.5M13.6 40.5H34.4C37.7603 40.5 39.4405 40.5 40.7239 39.846C41.8529 39.2708 42.7708 38.3529 43.346 37.2239C44 35.9405 44 34.2603 44 30.9V18.1C44 14.7397 44 13.0595 43.346 11.7761C42.7708 10.6471 41.8529 9.7292 40.7239 9.15396C39.4405 8.5 37.7603 8.5 34.4 8.5H13.6C10.2397 8.5 8.55953 8.5 7.27606 9.15396C6.14708 9.7292 5.2292 10.6471 4.65396 11.7761C4 13.0595 4 14.7397 4 18.1V30.9C4 34.2603 4 35.9405 4.65396 37.2239C5.2292 38.3529 6.14708 39.2708 7.27606 39.846C8.55953 40.5 10.2397 40.5 13.6 40.5Z" stroke="#A97B50" stroke-width="3" stroke-linecap="round" stroke-linejoin="round"/>
</svg>
